<svg id="Capa_1" data-name="Capa 1" xmlns="http://www.w3.org/2000/svg" viewBox="0 0 425 62"><defs><style>.cls-1{fill:#fff;}</style></defs><path class="cls-1" d="M168.3,3h22.8V33.7c0,20.1-10.2,27.3-29,27.3s-28.5-7.3-28.5-27.3V3h22.9V42.5c0,4.9,1.5,9,5.8,9s6-4.1,6-9Z"/><path class="cls-1" d="M219.2,18.4h-1.4l-6.7,23.4h13.8Zm9.9,40.5-2.4-10.1H209l-2.8,10.1H191.7L210.7,3h26.4l17.6,55.9Z"/><polygon class="cls-1" points="330.5 58.9 330.5 11.6 317.9 11.6 317.9 3 366.1 3 366.1 11.6 353.4 11.6 353.4 58.9 330.5 58.9"/><path class="cls-1" d="M387,18.4h-1.3L379,41.8h13.8Zm10,40.5-2.5-10.1H376.9l-2.8,10.1H359.6L378.5,3H405l17.5,55.9Z"/><path class="cls-1" d="M99.3,9.7c3.4,0,6.1,6.7,6.5,16.3l22-.5V1l-22,.5v9.7h-1c-1.2-6-4.4-10.2-12-10.2C79.8,1,68,11.8,68,30.9s12.1,30,30.5,30,28.9-11.5,29.3-24.1h-22c-.2,9.8-2.9,15.4-6.5,15.4s-7.2-5.1-7.2-21.3S95.4,9.7,99.3,9.7"/><path class="cls-1" d="M285.5,29.4h-3.7V11.7h3.7c4,0,7.7,1.3,7.7,8.6s-3.7,9.1-7.7,9.1m30.9,4.2c0,2.1-2.5,4.4-8.4,4.4h-6.9c-2.9,0-4.8-1-5.8-2.9,15.4-2,21-9.3,21-17.6C316.3,5.2,304.5,3,295.1,3H258.9V58.9h22.9V35.6h7.1c.3,2.8.8,6.2,1.5,9.9C292.5,56.2,294.6,61,304,61h1.8c9.3,0,12.4-4,12.4-10.1V33.6Z"/><path class="cls-1" d="M2.5,33.1c0-2.1,2.2-3,4.6-3s1.3-.5,1.5-1.3c1-4.9,2-9.9,3.1-14.8a18.1,18.1,0,0,1,5.2-9.7,12.8,12.8,0,0,1,12-2.8c4.6,1.1,7.1,5.4,5.9,10.2a13.5,13.5,0,0,1-6.5,8.6,2.1,2.1,0,0,1-3.1-.3.1.1,0,0,1-.1-.1,2.3,2.3,0,0,1,.2-3.3h0a12.1,12.1,0,0,0,3.8-4.7,3.9,3.9,0,0,0-1.2-4.5,5.9,5.9,0,0,0-6-.3,8.7,8.7,0,0,0-3.5,4.3c-1.4,3.2-4.2,15.9-4.5,18.7H26.1a2,2,0,0,0,2-1.1,3,3,0,0,1,3-1.9c2,0,2.6,1,2.2,2.9-.8,3.6-2.6,5.4-6.5,5.4-7.3.2-14.2.1-21.6.1a2.4,2.4,0,0,1-2.7-2.1v-.3"/><path class="cls-1" d="M51.4,22.3c.1-3.7-2.1-5.1-4.8-3.4a10.3,10.3,0,0,0-5,8.8c-.2,2.2,1.1,3.3,3.3,3a5,5,0,0,0,2.1-.9,9.4,9.4,0,0,0,4.4-7.4m2.1-8.2a3.7,3.7,0,0,1,2.6-1,2.2,2.2,0,0,1,2.1,2.2,1.1,1.1,0,0,1-.1.5c-.9,4.7-2,9.5-3,14.3a7.9,7.9,0,0,1,2-.4,1.7,1.7,0,0,1,2,1.5,1.1,1.1,0,0,1,0,.8c-.7,2.8-5.4,4.8-7.8,3.3a9.5,9.5,0,0,1-1.9-2.1l-1.1.7a9.5,9.5,0,0,1-7.8,1.7,5.4,5.4,0,0,1-4.4-4.6C35,24,40.8,14,48.7,13.2a6.7,6.7,0,0,1,4.8,1"/></svg>