<svg xmlns="http://www.w3.org/2000/svg" viewBox="0 0 420 96.67"><defs><style>.cls-1{fill:#e32417;}.cls-2{fill:#fff;}</style></defs><g id="Capa_2" data-name="Capa 2"><g id="Capa_1-2" data-name="Capa 1"><path class="cls-1" d="M165.63,2H188.5v30.7c0,20-10.21,27.19-29,27.19S131,52.63,131,32.67V2h22.87V41.45c0,4.92,1.56,9,5.81,9s6-4.1,6-9Z"/><path class="cls-1" d="M216.5,17.39h-1.34l-6.7,23.32h13.78Zm9.91,40.45L224,47.79H206.37l-2.83,10.05H189.09L208,2h26.45L252,57.84Z"/><polygon class="cls-1" points="327.78 57.84 327.78 10.62 315.12 10.62 315.12 1.97 363.31 1.97 363.31 10.62 350.65 10.62 350.65 57.84 327.78 57.84"/><path class="cls-1" d="M384.23,17.39h-1.34l-6.7,23.32H390Zm9.91,40.45-2.46-10.05H374.1l-2.83,10.05H356.82L375.74,2h26.45l17.5,55.87Z"/><path class="cls-1" d="M96.73,8.64c3.42,0,6.1,6.71,6.48,16.31l22-.52V0l-22,.52v9.61h-.94C101,4.16,97.83,0,90.28,0c-13,0-24.84,10.8-24.84,29.87,0,19.22,12.07,30,30.47,30,18,0,28.9-11.55,29.27-24.14h-22C103,45.52,100.3,51.1,96.73,51.1c-3.88,0-7.23-5.06-7.23-21.23,0-16.46,3.35-21.23,7.23-21.23"/><path class="cls-1" d="M282.8,28.39h-3.73V10.66h3.73c4,0,7.67,1.34,7.67,8.57s-3.65,9.16-7.67,9.16m30.8,4.15c0,2.16-2.46,4.4-8.34,4.4h-6.93c-2.86,0-4.77-1-5.78-2.93,15.38-2,21-9.28,21-17.54,0-12.29-11.77-14.53-21.23-14.53H256.2V57.82h22.87V34.57h4.1c1,0,2.05,0,3,0,.33,2.8.82,6.14,1.55,9.87,2.09,10.69,4.1,15.49,13.56,15.49h1.79c9.31,0,12.36-4,12.36-10.13V32.54Z"/><path class="cls-1" d="M0,32.1c0-2.13,2.25-3,4.63-3,1.06,0,1.28-.51,1.45-1.33,1-4.95,2.07-9.89,3.17-14.82a17.45,17.45,0,0,1,5.19-9.64,12.58,12.58,0,0,1,12-2.84c4.58,1.14,7,5.42,5.84,10.25a13.61,13.61,0,0,1-6.46,8.52,2.25,2.25,0,0,1-3.24-.36,2.33,2.33,0,0,1,.25-3.31c2.35-2,3.27-3.45,3.72-4.65a3.9,3.9,0,0,0-1.19-4.59,5.82,5.82,0,0,0-6-.27,8.48,8.48,0,0,0-3.44,4.31c-1.44,3.23-4.26,15.9-4.55,18.72H23.56a1.94,1.94,0,0,0,2-1.12,3,3,0,0,1,3-1.91c2,0,2.62,1,2.2,2.91-.77,3.6-2.56,5.34-6.43,5.42-7.37.17-14.27.07-21.64.08A2.41,2.41,0,0,1,0,32.1"/><path class="cls-1" d="M48.9,21.29c.07-3.72-2.12-5.11-4.85-3.44a10.57,10.57,0,0,0-5,8.77c-.15,2.25,1.11,3.3,3.35,3a5.5,5.5,0,0,0,2.11-.82,10,10,0,0,0,4.41-7.47M51,13.12a3.42,3.42,0,0,1,2.6-.9,2.1,2.1,0,0,1,2,2.62c-.91,4.76-2,9.49-3,14.34a10.93,10.93,0,0,1,2-.47,1.8,1.8,0,0,1,1.94,2.34c-.66,2.82-5.34,4.85-7.8,3.29a10.82,10.82,0,0,1-1.87-2.09l-1.1.74A9.78,9.78,0,0,1,38,34.66a5.31,5.31,0,0,1-4.4-4.6C32.44,23,38.28,13,46.21,12.14a7.4,7.4,0,0,1,4.81,1"/><path d="M232.57,96.67a162.7,162.7,0,0,1-53.63-9.26l7.29-21.22C227.7,80.43,258.37,72.92,290.85,65c17.9-4.39,36.4-8.92,57.31-10.1,23.83-1.34,47.33,2,71.84,10.25l-7.15,21.27c-48.55-16.32-81.63-8.22-116.66.37-20.05,4.91-40.51,9.92-63.62,9.92"/><path class="cls-2" d="M202.47,75.93a.43.43,0,0,1,.05.39s0,.11-.08.22l-1.41,3a.7.7,0,0,1-.53.41,2.76,2.76,0,0,1-1.06-.12,2,2,0,0,1-.78-.33.41.41,0,0,1-.13-.44l.06-.17.72-1.53-4.24-1.12-1.19,2.55,2.59.68a.6.6,0,0,1,.37.24.68.68,0,0,1,0,.48,3.27,3.27,0,0,1-.22.55,2.05,2.05,0,0,1-.54.81.68.68,0,0,1-.63.09L192.88,81l-1.35,2.92,4.34,1.15.95-2a.66.66,0,0,1,.54-.41,2.78,2.78,0,0,1,1.09.13,2.23,2.23,0,0,1,.83.34.43.43,0,0,1,.15.45,1.28,1.28,0,0,1-.07.16l-1.64,3.56a.89.89,0,0,1-.4.46.9.9,0,0,1-.59,0l-9.87-2.61a.61.61,0,0,1-.38-.23.55.55,0,0,1,0-.45,3.39,3.39,0,0,1,.2-.53,2,2,0,0,1,.54-.79.72.72,0,0,1,.62-.07l1,.27,3.63-7.84-1-.28a.63.63,0,0,1-.38-.22.59.59,0,0,1,0-.45,3.19,3.19,0,0,1,.21-.53,2.42,2.42,0,0,1,.37-.63.66.66,0,0,1,.35-.25.79.79,0,0,1,.43,0l9.66,2.56a.69.69,0,0,1,.41.23"/><path class="cls-2" d="M215.77,78.1a.55.55,0,0,1,.07.45,3,3,0,0,1-.15.56,2.61,2.61,0,0,1-.29.66.67.67,0,0,1-.32.29.85.85,0,0,1-.43,0l-2.36-.34-2.69,8.1,3.81.55,1.09-3.29a.7.7,0,0,1,.5-.47,3.44,3.44,0,0,1,1.16,0,2.7,2.7,0,0,1,.89.25.43.43,0,0,1,.21.43s0,.09,0,.17l-1.61,4.88a.87.87,0,0,1-.34.51.91.91,0,0,1-.59.08l-10.1-1.48a.62.62,0,0,1-.4-.18.55.55,0,0,1-.07-.45,2.91,2.91,0,0,1,.13-.55,2.15,2.15,0,0,1,.45-.84.7.7,0,0,1,.6-.14l1.59.23,2.71-8.21L208,79.11a.65.65,0,0,1-.41-.17.56.56,0,0,1-.06-.45,3.17,3.17,0,0,1,.14-.55,2.93,2.93,0,0,1,.29-.67.71.71,0,0,1,.32-.29.76.76,0,0,1,.43,0l6.66,1a.62.62,0,0,1,.4.18"/><path class="cls-2" d="M244,89.2l1.13-.09a3.69,3.69,0,0,0,2.39-1,4.55,4.55,0,0,0,1.21-2.16,7.77,7.77,0,0,0,.2-2.59,2.9,2.9,0,0,0-.88-2.07,2.8,2.8,0,0,0-2.16-.54l-1.13.1Zm5-10.49a4.24,4.24,0,0,1,2,1.62,5.49,5.49,0,0,1,.86,2.69,10.36,10.36,0,0,1-.33,3.55,6.79,6.79,0,0,1-2,3.25,6.67,6.67,0,0,1-4.18,1.63L240,91.9a.63.63,0,0,1-.44-.09.59.59,0,0,1-.17-.42,3.51,3.51,0,0,1,0-.56,2.17,2.17,0,0,1,.24-.93.74.74,0,0,1,.56-.27l1.06-.09.79-8.61L241,81a.61.61,0,0,1-.43-.08.55.55,0,0,1-.17-.42,2.89,2.89,0,0,1,0-.57,2.74,2.74,0,0,1,.13-.72.74.74,0,0,1,.25-.35.8.8,0,0,1,.41-.13l4.92-.41a6.19,6.19,0,0,1,2.89.37"/><path class="cls-2" d="M267.62,75.33a.55.55,0,0,1,.2.41,2.91,2.91,0,0,1,0,.57,2.71,2.71,0,0,1-.07.72.68.68,0,0,1-.21.37.86.86,0,0,1-.4.16l-2.55.45v8.64l2.76-.48a.59.59,0,0,1,.43,0,.52.52,0,0,1,.2.4,3.13,3.13,0,0,1,0,.59,3.32,3.32,0,0,1-.06.72.77.77,0,0,1-.21.37,1.15,1.15,0,0,1-.4.16l-8,1.4a.66.66,0,0,1-.44,0,.55.55,0,0,1-.2-.41,2.54,2.54,0,0,1-.05-.56,2.2,2.2,0,0,1,.16-.94.71.71,0,0,1,.53-.32l2.55-.45V78.48l-2.76.48a.61.61,0,0,1-.44,0,.52.52,0,0,1-.2-.4,3,3,0,0,1,0-.57,2.85,2.85,0,0,1,.07-.73.77.77,0,0,1,.21-.37.87.87,0,0,1,.4-.17l8-1.4a.66.66,0,0,1,.44,0"/><path class="cls-2" d="M280.16,74.7l-1.07,5,2.66-.62-1.53-4.45Zm1.43-2.46a.71.71,0,0,1,.41.46l3.64,9.47,1-.23a.62.62,0,0,1,.44,0c.11.05.18.18.23.39a3.55,3.55,0,0,1,.06.57,3.27,3.27,0,0,1,0,.73.72.72,0,0,1-.2.38.75.75,0,0,1-.39.19l-4.52,1a.58.58,0,0,1-.44,0c-.11,0-.18-.19-.23-.39a2.76,2.76,0,0,1-.07-.57,3.14,3.14,0,0,1,0-.73.72.72,0,0,1,.2-.38.89.89,0,0,1,.39-.18l1-.22-.57-1.5-3.89.9-.39,1.72.75-.18a.63.63,0,0,1,.44,0,.56.56,0,0,1,.23.39,3.55,3.55,0,0,1,.06.57,2.69,2.69,0,0,1,0,.73.72.72,0,0,1-.19.38.79.79,0,0,1-.39.19l-4.31,1a.62.62,0,0,1-.44,0,.61.61,0,0,1-.22-.41A4.58,4.58,0,0,1,274,86a3.14,3.14,0,0,1,0-.73.72.72,0,0,1,.2-.38.89.89,0,0,1,.39-.18l.85-.2,2.25-9.25-1.74.4a.66.66,0,0,1-.45,0,.6.6,0,0,1-.22-.4,2.76,2.76,0,0,1-.07-.57,2.69,2.69,0,0,1,0-.73.72.72,0,0,1,.2-.38.89.89,0,0,1,.39-.18l5-1.16a1.16,1.16,0,0,1,.7,0"/><path class="cls-2" d="M295.91,74.34,297.5,74a2.69,2.69,0,0,0,1.79-1.09,1.86,1.86,0,0,0,.21-.69,2,2,0,0,0,0-.74,1.07,1.07,0,0,0-.68-.81,2.75,2.75,0,0,0-1.5,0l-1.58.39Zm4.58-6a2.9,2.9,0,0,1,1.65,2.09q.74,3-2.41,4.59a1.64,1.64,0,0,1,1,.54,9.13,9.13,0,0,1,1,1.26c.25.36.39.55.4.58a1.75,1.75,0,0,0,.46.45.64.64,0,0,0,.49.06l.2,0a.63.63,0,0,1,.44,0,.57.57,0,0,1,.24.39,5.2,5.2,0,0,1,.07.57,3.27,3.27,0,0,1,0,.73.72.72,0,0,1-.19.38.89.89,0,0,1-.39.19l-.93.22a2.14,2.14,0,0,1-1.36,0,2.68,2.68,0,0,1-1.05-1,8.66,8.66,0,0,1-.58-1l-.49-.81a4.1,4.1,0,0,0-.45-.58,1.56,1.56,0,0,0-.78-.5,1.93,1.93,0,0,0-1,0l-.69.16.19,2.84,1-.25a.6.6,0,0,1,.43,0c.11,0,.18.18.24.38a5.43,5.43,0,0,1,.07.58,2.74,2.74,0,0,1,0,.73.65.65,0,0,1-.18.38.89.89,0,0,1-.39.19l-4.83,1.18a.63.63,0,0,1-.44,0,.57.57,0,0,1-.23-.39,2.61,2.61,0,0,1-.08-.56,2,2,0,0,1,.09-1,.71.71,0,0,1,.51-.36l1.14-.28L293,71.59l-1.14.28a.7.7,0,0,1-.44,0,.61.61,0,0,1-.23-.39,2.76,2.76,0,0,1-.07-.57,2.39,2.39,0,0,1,0-.73.79.79,0,0,1,.18-.39.89.89,0,0,1,.39-.19l5.5-1.34a5,5,0,0,1,3.25.09"/><path class="cls-2" d="M318.49,63.56a.53.53,0,0,1,.22.4,2.68,2.68,0,0,1,.06.57,3.08,3.08,0,0,1,0,.73.72.72,0,0,1-.2.38,1,1,0,0,1-.39.17l-2.53.54.31,8.64,2.74-.59a.63.63,0,0,1,.44,0q.15.07.21.39a2.79,2.79,0,0,1,.06.58,3.14,3.14,0,0,1,0,.73.72.72,0,0,1-.2.38,1,1,0,0,1-.39.17l-7.95,1.7a.62.62,0,0,1-.44,0,.6.6,0,0,1-.22-.4,2.53,2.53,0,0,1-.06-.56,1.91,1.91,0,0,1,.12-.94.75.75,0,0,1,.52-.35l2.53-.54-.32-8.64-2.74.59a.69.69,0,0,1-.44,0,.57.57,0,0,1-.22-.4,2.94,2.94,0,0,1,0-.57,2.52,2.52,0,0,1,0-.72.71.71,0,0,1,.19-.39.93.93,0,0,1,.4-.18l7.94-1.7a.62.62,0,0,1,.44,0"/><path class="cls-2" d="M329.21,65.37a5.93,5.93,0,0,0-.59,2.06,8.36,8.36,0,0,0,0,2.24,3.17,3.17,0,0,0,.93,2,2.28,2.28,0,0,0,1.95.45,3.25,3.25,0,0,0,2.55-1.84,6.15,6.15,0,0,0,.58-2.06,8.45,8.45,0,0,0,0-2.25,3.24,3.24,0,0,0-.93-2,2.3,2.3,0,0,0-1.95-.46,3.28,3.28,0,0,0-2.55,1.85m5.19-4.08a4.5,4.5,0,0,1,2.07,1.59,6.14,6.14,0,0,1,1,2.73,9.79,9.79,0,0,1,0,2.81,8.59,8.59,0,0,1-.81,2.67,6.42,6.42,0,0,1-2,2.38,6.87,6.87,0,0,1-3,1.16,5.49,5.49,0,0,1-2.79-.25,4.44,4.44,0,0,1-2.06-1.6,6.06,6.06,0,0,1-1.05-2.72,10.17,10.17,0,0,1,0-2.81,8.65,8.65,0,0,1,.81-2.68,6.24,6.24,0,0,1,2-2.37,6.84,6.84,0,0,1,3-1.17,5.47,5.47,0,0,1,2.79.26"/><path class="cls-2" d="M364.58,65.86l1.3,0a3.18,3.18,0,0,0,2.45-.72,2.16,2.16,0,0,0,.49-.77,3,3,0,0,0,.2-.93c0-1-.71-1.59-2.25-1.66l-1.3,0Zm6.23-5.27a3.27,3.27,0,0,1,1,2.71,6.12,6.12,0,0,1-.38,1.91,4.57,4.57,0,0,1-1,1.63,5.86,5.86,0,0,1-4.65,1.42l-1.75-.07-.42,1.93,2.38.09a.64.64,0,0,1,.41.13.6.6,0,0,1,.11.44,4.4,4.4,0,0,1-.09.58,2.72,2.72,0,0,1-.21.69.7.7,0,0,1-.28.32.8.8,0,0,1-.43.07l-6.72-.27a.48.48,0,0,1-.54-.58,3.78,3.78,0,0,1,.08-.56,2,2,0,0,1,.36-.88.7.7,0,0,1,.58-.21l1.61.07,1.85-8.45-1.61-.06a.63.63,0,0,1-.42-.13.55.55,0,0,1-.12-.44,3.85,3.85,0,0,1,.09-.57,2.8,2.8,0,0,1,.22-.69.66.66,0,0,1,.29-.32.77.77,0,0,1,.42-.08l5.88.24a5.15,5.15,0,0,1,3.3,1.08"/><path class="cls-2" d="M381.38,64.54a6.13,6.13,0,0,0-1.15,1.8,8.24,8.24,0,0,0-.63,2.16,3.23,3.23,0,0,0,.31,2.19,2.29,2.29,0,0,0,1.74,1,3.26,3.26,0,0,0,3-1,6.14,6.14,0,0,0,1.16-1.8,9.08,9.08,0,0,0,.63-2.16,3.23,3.23,0,0,0-.32-2.19,2.29,2.29,0,0,0-1.73-1,3.32,3.32,0,0,0-3,1m6.16-2.41a4.42,4.42,0,0,1,1.51,2.11,6,6,0,0,1,.22,2.91,10.07,10.07,0,0,1-.81,2.69,8.33,8.33,0,0,1-1.55,2.32,6.33,6.33,0,0,1-2.62,1.7,7,7,0,0,1-3.22.25,5.47,5.47,0,0,1-2.6-1A4.46,4.46,0,0,1,377,70.94a6.14,6.14,0,0,1-.22-2.9,9.75,9.75,0,0,1,.82-2.69A8.16,8.16,0,0,1,379.09,63a6.39,6.39,0,0,1,2.62-1.7,7,7,0,0,1,3.22-.25,5.46,5.46,0,0,1,2.61,1.05"/><path class="cls-2" d="M399.17,70.71l1.27.31A3.16,3.16,0,0,0,403,70.8a2.22,2.22,0,0,0,.63-.66,2.81,2.81,0,0,0,.38-.87c.25-1-.38-1.7-1.87-2.07l-1.27-.31Zm7.15-3.92a3.25,3.25,0,0,1,.49,2.86,6.71,6.71,0,0,1-.76,1.8,4.57,4.57,0,0,1-1.3,1.39c-1.19.82-2.8,1-4.84.47l-1.71-.41-.79,1.8,2.31.56a.68.68,0,0,1,.38.21.58.58,0,0,1,0,.46,2.88,2.88,0,0,1-.2.54,2.76,2.76,0,0,1-.35.64.66.66,0,0,1-.34.26.92.92,0,0,1-.43,0l-6.53-1.6a.6.6,0,0,1-.38-.22.57.57,0,0,1,0-.46,4.25,4.25,0,0,1,.19-.53,2,2,0,0,1,.52-.79.72.72,0,0,1,.62-.09l1.56.38,3.49-7.9-1.57-.39a.6.6,0,0,1-.38-.21.55.55,0,0,1,0-.45,4.21,4.21,0,0,1,.2-.54,2.76,2.76,0,0,1,.35-.64.77.77,0,0,1,.35-.25.78.78,0,0,1,.43,0l5.72,1.41a5.07,5.07,0,0,1,3,1.72"/></g></g></svg>